<mxfile host="app.diagrams.net" modified="2024-03-12T09:33:18.424Z" agent="Mozilla/5.0 (Windows NT 10.0; Win64; x64) AppleWebKit/537.36 (KHTML, like Gecko) Chrome/122.0.0.0 Safari/537.36" version="24.0.4" etag="Yb4MhZX_aovPdBw2yvwt" type="github">
  <diagram name="第 1 页" id="Pq2qe5ZXNrjBSunqA_Ei">
    <mxGraphModel>
      <root>
        <mxCell id="0" />
        <mxCell id="1" parent="0" />
      </root>
    </mxGraphModel>
  </diagram>
</mxfile>
